<?xml version="1.0" encoding="iso-8859-1"?>
<!-- Uploaded to: SVG Repo, www.svgrepo.com, Generator: SVG Repo Mixer Tools -->
<svg fill="#000000" height="800px" width="800px" version="1.1" id="Layer_1" xmlns="http://www.w3.org/2000/svg" xmlns:xlink="http://www.w3.org/1999/xlink" 
	 viewBox="0 0 496.008 496.008" xml:space="preserve">
<g>
	<g>
		<g>
			<path d="M128.084,249.136c0.312,2.168,1.504,4.128,3.304,5.4c1.36,0.96,2.976,1.464,4.616,1.464c0.52,0,1.048-0.056,1.568-0.16
				l80-16c3.408-0.68,5.976-3.48,6.376-6.928c0.4-3.448-1.48-6.76-4.632-8.192l-88-40c-2.68-1.224-5.784-0.888-8.112,0.88
				c-2.336,1.752-3.536,4.64-3.128,7.528L128.084,249.136z M190.116,229.024l-47.384,9.48l-4.744-33.168L190.116,229.024z"/>
			<path d="M278.436,239.84l80,16c0.52,0.104,1.048,0.16,1.568,0.16c1.64,0,3.256-0.504,4.616-1.472
				c1.8-1.272,2.992-3.224,3.304-5.4l8-56c0.416-2.888-0.792-5.784-3.128-7.528c-2.328-1.768-5.432-2.096-8.112-0.88l-88,40
				c-3.16,1.44-5.032,4.752-4.632,8.192C272.46,236.368,275.028,239.168,278.436,239.84z M358.02,205.328l-4.744,33.168
				l-47.384-9.48L358.02,205.328z"/>
			<path d="M372.036,265.096c-2.88-1.664-6.488-1.4-9.056,0.68c-0.12,0.096-10.048,8.016-26.976,16.568V280c0-4.424-3.576-8-8-8h-32
				c-4.424,0-8,3.576-8,8v19.56c-5.248,1.152-10.592,2.08-16,2.784V288c0-4.424-3.576-8-8-8h-32c-4.424,0-8,3.576-8,8v14.344
				c-5.408-0.704-10.752-1.632-16-2.784V280c0-4.424-3.576-8-8-8h-32c-4.424,0-8,3.576-8,8v2.344
				c-16.928-8.552-26.856-16.48-26.976-16.568c-2.576-2.08-6.168-2.344-9.056-0.68c-2.856,1.672-4.4,4.928-3.856,8.2
				C120.252,274.168,135.668,360,248.004,360s127.752-85.832,127.888-86.704C376.428,270.024,374.892,266.768,372.036,265.096z
				 M248.004,344c-64.808,0-92.656-30.52-104.264-52.2c5.912,3.344,12.984,6.96,21.088,10.48c2.472,1.064,5.32,0.832,7.568-0.656
				c2.248-1.48,3.608-4,3.608-6.696V288h16v17.888c0,3.656,2.488,6.848,6.032,7.752c10.752,2.744,21.952,4.616,33.288,5.576
				c2.24,0.232,4.448-0.56,6.096-2.08c1.648-1.52,2.584-3.64,2.584-5.888V296h16v15.248c0,2.24,0.936,4.376,2.584,5.888
				c1.648,1.512,3.864,2.288,6.096,2.08c11.336-0.96,22.536-2.832,33.288-5.576c3.544-0.896,6.032-4.096,6.032-7.752V288h16v6.928
				c0,2.696,1.36,5.208,3.608,6.688c2.256,1.48,5.104,1.712,7.568,0.656c8.096-3.504,15.168-7.136,21.08-10.472
				C340.652,313.488,312.804,344,248.004,344z"/>
			<path d="M80.844,231.2l15.92,1.592c0.712-7.008,2.08-14.472,4.232-22.8l-15.504-3.984
				C83.148,215.136,81.628,223.376,80.844,231.2z"/>
			<path d="M416.004,416h-96v-16h-0.912c0.192-0.088,0.384-0.192,0.584-0.28c2.76,0.144,5.528,0.28,8.328,0.28
				c92.632,0,168-75.368,168-168s-75.368-168-168-168c-13.016,0-25.8,1.488-38.256,4.424c3.168-9.552,9.552-13.12,9.832-13.272
				l4.424-2.208V0h-8c-67.288,0-83.12,47.36-86.848,69.192C195.78,65.784,182.036,64,168.004,64c-92.632,0-168,75.368-168,168
				s75.368,168,168,168c2.8,0,5.568-0.136,8.336-0.28c0.192,0.096,0.384,0.192,0.584,0.28h-0.92v16h-96c-44.112,0-80,35.888-80,80
				h16c0-35.288,28.712-64,64-64h98.928c19.2,39.264,65.712,47.544,67.76,47.888l1.312,0.224l1.312-0.216
				c2.056-0.344,48.56-8.632,67.76-47.888h98.928c35.288,0,64,28.712,64,64h16C496.004,451.888,460.116,416,416.004,416z
				 M288.004,16.272v27.512c-5.344,4.248-13.784,13.448-15.608,29.76c-5.464,1.936-10.84,4.208-16.144,6.736
				c-0.08,0-0.168-0.008-0.248-0.008V56h-16v24.312c-0.056,0-0.12,0-0.176,0.008c-5.056-2.408-10.168-4.6-15.368-6.472
				C226.356,58.52,236.268,19.888,288.004,16.272z M304.004,422.408c-13.176,30.632-48.704,39.84-56,41.432
				c-7.32-1.6-42.824-10.824-56-41.44v-16.208c17.544,6.24,36.344,9.808,56,9.808s38.456-3.568,56-9.8V422.408z M248.004,400
				c-83.816,0-152-68.184-152-152h-16c0,55.04,26.728,103.832,67.752,134.488C73.5,372.536,16.004,308.928,16.004,232
				c0-83.816,68.184-152,152-152c13.36,0,26.432,1.784,39.128,5.208C154.62,98.576,110.324,137,90.78,189.2l14.984,5.608
				C124.996,143.44,170.7,106.76,223.66,98.032c-24.36,17.64-43.448,40.56-54.984,66.744l14.64,6.456
				c12.632-28.672,35.376-53.112,64.68-69.936c29.304,16.824,52.04,41.264,64.68,69.936l14.64-6.456
				c-11.544-26.192-30.632-49.128-55.016-66.768c47.6,7.64,88.968,37.416,111.296,81.6l14.28-7.216
				c-22.424-44.376-62.24-75.56-108.8-87.24c12.64-3.384,25.64-5.152,38.928-5.152c83.816,0,152,68.184,152,152
				c0,76.928-57.496,140.536-131.752,150.488c41.024-30.656,67.752-79.448,67.752-134.488c0-19.904-3.624-39.688-10.784-58.808
				l-14.984,5.608c6.48,17.32,9.768,35.216,9.768,53.2C400.004,331.816,331.82,400,248.004,400z"/>
		</g>
	</g>
</g>
</svg>